<svg xmlns="http://www.w3.org/2000/svg" width="111.817" height="28.618" viewBox="0 0 111.817 28.618"><g transform="translate(0 0)"><path d="M154.392,898.59V872.121a12.407,12.407,0,0,1,8.368,4.208,28.319,28.319,0,0,1,5.3,9.086c2.23-6.1,6.434-12.68,13.529-13.294v9.2a15.434,15.434,0,0,1,4.91-7.394A14.521,14.521,0,0,1,195.6,871c5.917,0,11.843,4.058,12.9,10.078H201.67c-1.167-2.694-3.649-3.775-6.5-3.775a7.757,7.757,0,0,0-7.972,7.534c0,.126,0,.252,0,.378,0,4.729,3.136,8.195,7.935,8.195a7.507,7.507,0,0,0,5.413-2.065,8.459,8.459,0,0,0,1.732-2.867h-7.848v-6.318h14.546V872.121h13.64v6.366h-7.123v3.671h7.123v6.321h-7.123v3.745h7.123v6.366h-13.64V888.479a14.561,14.561,0,0,1-23.049,8.092,13.678,13.678,0,0,1-4.334-7.218v9.236h-6.383V884.255c-3.065,4.066-4.1,9.33-4.191,14.335h-6a27.149,27.149,0,0,0-4.239-14.335V898.59Z" transform="translate(-130.53 -870.995)" fill="#fff"/><path d="M270.07,872.666h6.383v26.469h-5.76c-.852-4.382-2.924-9.954-6.525-12.732v12.732h-6.391V872.65c2.9.59,6.69,3.568,8.8,5.6a15.845,15.845,0,0,1,3.491,4.459Z" transform="translate(-164.637 -871.541)" fill="#fff"/><path d="M135.15,886.352H129.87c1.308-2.664,2.482-4.744,5.279-6.045Zm5.839-13.853c-8.558,0-14.139,5.8-17.486,13.206a69.761,69.761,0,0,0-3.436,9.007l-1.1,3.728-.189.646h6.383l.2-.781.5-2.041.527-1.859.387-1.174.181-.568h8.18v6.421h6.434V872.507c-.2,0-.4-.008-.592-.008" transform="translate(-118.783 -871.491)" fill="#fff"/></g></svg>